<?xml version="1.0" standalone="no"?>
<!DOCTYPE svg PUBLIC "-//W3C//DTD SVG 20010904//EN"
 "http://www.w3.org/TR/2001/REC-SVG-20010904/DTD/svg10.dtd">
<svg version="1.0" xmlns="http://www.w3.org/2000/svg"
 width="1024.000000pt" height="1024.000000pt" viewBox="0 0 1024.000000 1024.000000"
 preserveAspectRatio="xMidYMid meet">

<g transform="translate(0.000000,1024.000000) scale(0.100000,-0.100000)"
fill="#000000" stroke="none">
<path d="M3789 9693 c5 -10 27 -58 50 -108 23 -49 50 -106 60 -125 10 -19 24
-57 30 -84 14 -58 12 -60 -66 -76 -62 -13 -166 -53 -288 -110 -49 -23 -117
-50 -151 -61 -51 -16 -63 -24 -82 -58 -34 -60 -30 -67 34 -67 46 0 60 -4 74
-22 10 -12 23 -22 29 -22 7 0 25 -16 42 -35 17 -19 37 -35 45 -35 8 0 14 -4
14 -9 0 -5 27 -23 61 -40 47 -24 65 -29 80 -21 14 8 19 7 19 -1 0 -9 3 -9 14
0 11 9 16 9 21 0 6 -8 10 -8 16 2 6 11 11 11 20 2 14 -14 39 -6 39 13 0 8 5
14 10 14 6 0 10 -7 10 -16 0 -11 7 -8 24 11 16 17 37 26 66 29 43 4 68 16 34
16 -15 0 -16 2 -5 9 9 6 22 6 34 -1 16 -8 22 -7 29 6 5 9 14 14 19 10 6 -3 13
4 16 16 4 16 12 20 31 18 20 -2 31 5 47 27 13 20 27 29 39 27 14 -3 17 0 13
11 -3 9 2 21 10 29 15 11 16 11 10 -5 -6 -15 -4 -16 13 -7 23 12 25 21 8 38
-9 9 -8 12 5 12 17 0 22 15 18 59 -1 13 4 28 11 33 10 8 10 11 0 15 -6 2 -10
9 -7 14 3 4 -3 26 -14 48 -15 29 -17 41 -8 44 9 4 9 6 -1 6 -7 1 -10 6 -7 11
3 6 0 10 -7 10 -8 0 -20 16 -26 34 -7 19 -22 38 -33 41 -10 4 -17 11 -14 16 4
5 2 9 -4 9 -5 0 -13 9 -16 21 -8 23 -81 72 -165 109 -80 36 -131 73 -165 119
-30 41 -54 56 -36 24z"/>
<path d="M8141 9523 c-1 -12 4 -25 9 -28 12 -7 12 2 0 30 -8 19 -9 19 -9 -2z"/>
<path d="M8161 9454 c0 -11 3 -14 6 -6 3 7 2 16 -1 19 -3 4 -6 -2 -5 -13z"/>
<path d="M8181 9398 c-1 -9 11 -54 26 -100 15 -46 28 -95 29 -110 1 -15 5 -35
9 -45 5 -10 9 -20 9 -23 7 -31 30 -109 36 -125 8 -20 17 -56 24 -105 3 -14 16
-63 31 -110 14 -47 27 -92 29 -100 20 -76 61 -227 76 -280 11 -36 30 -108 44
-160 13 -52 41 -151 61 -220 20 -69 38 -136 41 -150 3 -13 14 -52 24 -85 10
-33 39 -139 65 -235 26 -96 58 -209 71 -250 12 -41 25 -86 28 -100 11 -65 39
-174 68 -265 57 -183 124 -430 133 -490 2 -16 11 -43 19 -60 8 -16 19 -48 25
-70 6 -22 26 -94 45 -160 19 -66 44 -163 56 -215 11 -52 27 -113 35 -135 14
-37 58 -198 71 -254 3 -13 9 -31 13 -40 4 -9 18 -61 31 -116 25 -109 52 -212
76 -290 19 -63 35 -121 73 -260 16 -60 37 -135 46 -165 29 -102 42 -159 37
-165 -3 -3 0 -5 6 -5 7 0 12 -6 12 -13 0 -8 11 -49 25 -93 13 -43 36 -133 50
-199 15 -66 33 -134 40 -150 8 -17 16 -42 18 -55 15 -75 38 -161 56 -203 12
-27 23 -63 25 -80 3 -18 10 -48 16 -67 6 -19 13 -48 16 -65 3 -16 10 -43 15
-60 6 -16 24 -84 40 -150 17 -66 34 -129 39 -140 15 -34 61 -205 85 -317 6
-30 37 -132 46 -153 9 -22 66 -251 94 -380 10 -44 26 -98 36 -120 17 -38 32
-97 29 -111 -1 -4 4 -11 12 -15 7 -5 9 -9 3 -9 -81 -6 -142 -19 -215 -47 -8
-4 -19 -5 -23 -4 -5 1 -20 -5 -35 -13 -34 -19 -102 -37 -114 -30 -4 3 -8 1 -8
-5 0 -9 -14 -12 -114 -26 -22 -3 -59 -12 -83 -20 -24 -8 -53 -15 -64 -15 -12
0 -17 -4 -13 -11 4 -6 -1 -10 -12 -8 -11 1 -32 -3 -48 -10 -16 -6 -35 -10 -43
-7 -7 3 -13 1 -13 -4 0 -9 -50 -26 -97 -33 -12 -2 -25 -6 -29 -9 -3 -4 -12 -4
-20 -1 -8 3 -14 0 -14 -7 0 -6 -4 -9 -8 -6 -5 3 -31 -2 -58 -10 -27 -9 -56
-17 -64 -19 -8 -2 -49 -13 -90 -25 -157 -43 -347 -93 -400 -106 -30 -6 -68
-17 -85 -22 -29 -9 -106 -27 -155 -36 -86 -16 -139 -30 -205 -57 -53 -21 -170
-50 -186 -46 -10 3 -19 2 -21 -2 -4 -10 -211 -69 -261 -75 -21 -3 -44 -9 -50
-14 -7 -5 -70 -24 -142 -42 -71 -18 -175 -46 -230 -63 -55 -16 -107 -31 -115
-32 -9 0 -20 -4 -25 -7 -6 -3 -28 -8 -50 -12 -22 -4 -67 -16 -100 -26 -154
-47 -248 -71 -292 -72 -5 0 -24 -8 -43 -18 -32 -16 -318 -91 -400 -105 -19 -3
-37 -11 -41 -17 -4 -6 -12 -8 -18 -4 -6 4 -23 0 -38 -7 -28 -14 -195 -63 -243
-71 -14 -3 -25 -5 -25 -6 0 -1 -7 -3 -15 -5 -8 -2 -35 -10 -60 -19 -26 -8 -77
-22 -115 -30 -39 -8 -92 -22 -120 -31 -62 -20 -139 -42 -230 -65 -38 -10 -126
-34 -194 -54 -68 -20 -126 -34 -129 -32 -2 3 -26 -4 -53 -14 -27 -11 -95 -31
-151 -45 -57 -15 -122 -33 -145 -40 -56 -19 -331 -93 -413 -112 -36 -8 -72
-17 -80 -20 -8 -3 -19 -7 -25 -8 -13 -3 -215 -59 -330 -92 -175 -49 -295 -81
-295 -77 0 2 -19 -4 -42 -12 -43 -15 -231 -65 -523 -139 -93 -24 -183 -48
-199 -54 -16 -7 -77 -21 -135 -32 -129 -25 -227 -54 -247 -73 -22 -23 -17 -28
14 -12 36 18 156 53 212 60 38 6 48 3 60 -14 8 -11 22 -20 32 -20 11 0 18 -7
18 -20 0 -20 3 -20 2811 -20 1547 0 2809 3 2806 7 -4 3 7 14 23 24 17 11 30
26 30 34 0 8 7 15 15 15 8 0 15 -4 15 -9 0 -5 2 -16 5 -23 4 -9 -5 -19 -22
-26 -26 -11 -26 -11 -9 3 11 8 16 18 12 22 -9 9 -38 -26 -30 -38 2 -4 18 -7
33 -6 16 1 27 6 24 10 -3 4 1 14 7 22 11 14 10 34 -6 88 -4 11 0 17 10 17 9 0
16 -6 16 -14 0 -12 20 -26 36 -26 2 0 4 10 5 23 1 17 3 16 10 -9 10 -34 40
-49 59 -30 9 8 11 6 5 -12 -7 -23 -7 -24 12 -5 11 10 18 24 15 31 -7 21 8 13
19 -10 9 -21 9 -21 4 4 -4 22 -2 26 10 22 10 -4 15 0 15 10 0 12 -6 15 -25 10
-15 -4 -25 -2 -25 5 0 6 9 11 20 11 11 0 20 3 21 8 4 40 33 82 47 68 3 -4 1
-11 -6 -15 -10 -6 -10 -15 -3 -34 7 -17 7 -27 1 -27 -6 0 -10 5 -10 10 0 6 -4
10 -10 10 -5 0 -10 -7 -10 -15 0 -8 4 -15 9 -15 5 0 11 -12 14 -26 3 -20 0
-28 -13 -31 -15 -4 -16 -11 -10 -40 5 -19 11 -38 15 -41 4 -4 4 5 0 21 -6 22
-4 26 8 21 9 -3 18 -15 20 -27 3 -15 5 -11 7 13 1 19 2 41 1 48 -1 7 9 26 23
43 15 17 26 27 26 24 0 -4 7 -2 15 5 8 7 15 20 14 29 0 12 -2 12 -10 -4 -7
-16 -8 -13 -5 12 3 18 1 35 -4 38 -14 8 -13 45 1 45 6 0 9 -9 6 -20 -3 -11 -1
-23 4 -26 5 -3 12 8 15 25 4 17 10 31 14 31 4 0 11 10 15 23 4 14 8 17 12 9 3
-7 0 -19 -7 -27 -6 -8 -9 -18 -6 -23 3 -5 -4 -16 -15 -25 -23 -20 -25 -37 -4
-37 8 0 15 9 15 19 0 11 5 23 10 26 6 3 10 -5 10 -18 0 -14 6 -27 13 -30 19
-7 9 44 -11 59 -13 10 -13 12 3 21 10 6 36 8 57 6 31 -5 41 -1 59 18 13 15 19
18 16 8 -6 -17 10 -39 26 -39 5 0 6 7 3 16 -3 9 5 26 21 42 17 17 25 21 20 10
-3 -10 -2 -20 2 -23 10 -6 22 19 17 37 -1 7 -1 10 1 6 2 -4 12 -4 21 -1 11 3
13 2 6 -4 -6 -4 -19 -23 -29 -42 -14 -28 -15 -38 -5 -57 7 -12 18 -20 26 -17
16 6 19 33 4 33 -5 0 -10 12 -10 28 l1 27 13 -25 14 -24 5 24 c3 16 5 9 6 -20
2 -41 3 -43 13 -20 5 14 13 32 17 40 5 9 1 22 -9 33 -12 12 -16 26 -12 40 6
21 7 21 10 -3 4 -23 17 -39 34 -40 3 0 10 17 16 37 l10 38 1 -31 c1 -28 4 -32
29 -31 15 1 30 6 34 12 4 5 6 -5 4 -23 -2 -18 1 -35 7 -39 6 -3 7 -1 3 5 -4 7
-1 12 10 12 11 0 14 4 7 12 -10 14 -12 37 -3 40 3 0 22 -4 43 -11 23 -8 35
-17 31 -24 -5 -9 -4 -9 6 0 10 9 10 17 -1 42 -8 17 -17 31 -21 31 -5 0 -8 7
-8 15 0 8 5 15 10 15 6 0 10 -7 10 -15 0 -8 4 -15 9 -15 6 0 14 -19 19 -42 6
-24 10 -35 11 -25 1 9 6 17 11 17 6 0 10 5 10 11 0 5 -5 7 -10 4 -5 -3 -10 2
-10 12 0 11 -5 24 -12 31 -6 6 -9 15 -5 18 8 8 40 -23 34 -33 -3 -5 2 -14 9
-21 13 -12 14 -9 9 15 -5 19 -4 24 3 14 5 -7 15 -10 21 -6 7 4 18 1 26 -5 16
-13 20 -3 17 50 -2 25 -1 25 8 3 9 -22 21 -32 19 -15 -4 21 3 23 20 8 26 -24
50 -17 26 7 -9 10 -14 21 -11 25 4 3 11 0 15 -7 7 -10 10 -9 16 8 6 20 25 20
25 0 0 -6 -4 -8 -9 -5 -5 3 -12 -1 -15 -10 -9 -22 -8 -23 15 -17 18 5 20 11
14 39 -3 21 -2 34 5 34 9 0 14 -24 13 -72 0 -29 26 -18 46 19 6 13 15 22 19
21 4 -1 20 6 35 16 15 10 31 16 35 12 3 -4 0 -11 -7 -16 -12 -7 -11 -11 3 -25
9 -10 20 -14 24 -11 3 4 0 11 -7 15 -11 7 -8 15 13 37 15 17 24 35 21 44 -5
11 -3 12 5 4 8 -8 8 -19 0 -38 -6 -17 -6 -25 0 -21 6 3 10 11 10 16 0 17 40
54 60 55 11 1 25 -5 31 -12 16 -19 26 -17 26 4 0 33 3 42 13 42 6 0 10 -9 10
-20 0 -11 6 -20 13 -20 8 0 14 7 14 15 0 8 -4 15 -9 15 -5 0 -2 7 6 16 9 8 14
20 11 25 -12 19 30 8 52 -13 l24 -23 -2 52 c-1 29 -6 50 -10 47 -4 -2 -10 0
-13 4 -3 5 4 9 16 8 15 -1 24 -9 28 -25 5 -23 6 -23 23 -6 10 9 21 14 25 11 3
-4 0 -11 -8 -16 -8 -5 -12 -12 -8 -15 3 -4 17 1 31 10 15 10 28 12 31 6 4 -5
2 -12 -4 -16 -12 -7 -13 -65 -1 -83 6 -10 10 -7 13 12 3 14 0 30 -6 36 -8 8
-6 14 7 21 12 7 16 17 12 32 -5 20 -5 20 5 4 9 -14 9 -22 -1 -33 -9 -12 -10
-17 0 -27 10 -9 11 -8 6 6 -4 10 -2 17 4 17 8 0 11 692 11 2510 0 2387 -1
2509 -17 2504 -17 -5 -17 -5 0 6 14 9 17 26 17 103 l0 92 -33 19 c-17 11 -35
19 -38 18 -3 0 -4 10 -1 23 5 28 17 33 25 11 3 -8 1 -17 -6 -20 -7 -2 -2 -8
11 -11 12 -4 22 -11 22 -16 0 -5 5 -9 10 -9 6 0 10 9 10 20 0 11 -7 20 -15 20
-8 0 -15 4 -15 10 0 5 6 7 14 4 9 -4 14 3 14 20 0 14 -4 26 -9 26 -5 0 -9 -7
-9 -15 0 -8 -4 -15 -10 -15 -15 0 -12 14 8 36 20 22 27 54 12 54 -5 0 -10 -9
-10 -20 0 -11 -6 -20 -14 -20 -13 0 -18 48 -6 60 14 14 38 70 30 70 -6 0 -10
-4 -10 -9 0 -10 -36 -21 -44 -14 -2 3 -2 12 1 20 4 10 8 11 13 4 3 -6 6 8 6
31 -1 31 -5 43 -16 43 -8 0 -19 10 -25 23 -5 12 -18 22 -28 22 -11 0 -15 5
-11 11 4 8 -1 9 -17 4 -13 -3 -19 -3 -14 2 6 4 10 18 9 30 -1 14 3 20 10 16 6
-3 2 3 -9 14 -11 11 -23 19 -27 16 -12 -7 -9 -31 5 -36 9 -4 9 -6 -1 -6 -20
-1 -25 25 -9 56 12 22 13 33 4 49 -7 12 -18 19 -25 16 -11 -3 -12 0 -3 17 13
23 36 29 28 8 -3 -8 -1 -20 3 -27 6 -9 11 -1 15 26 10 59 13 64 32 57 14 -5
15 -3 6 7 -7 7 -17 9 -25 4 -7 -5 -29 -9 -48 -9 -34 0 -36 1 -32 27 4 28 11
32 45 29 9 -1 17 2 17 7 0 5 -11 10 -25 10 -29 0 -47 12 -28 19 7 2 9 11 6 19
-3 8 0 14 6 14 6 0 11 4 11 8 0 4 -9 8 -20 8 -11 0 -20 -4 -20 -8 0 -21 -17
-4 -29 28 -15 41 -9 53 14 30 9 -9 12 -16 6 -16 -6 0 -11 -4 -11 -9 0 -6 9 -9
19 -8 12 1 17 6 13 15 -8 22 -52 66 -52 53 0 -7 -4 -9 -10 -6 -5 3 -10 17 -10
30 0 18 -4 23 -16 18 -14 -5 -15 -3 -5 16 9 16 9 21 0 19 -16 -4 -28 41 -18
70 9 23 -5 32 -14 10 -4 -10 -6 -10 -6 0 -1 7 9 17 22 22 12 5 16 9 10 9 -8 1
-14 15 -14 34 l-1 32 -8 -30 -8 -30 -1 34 c-1 25 -5 32 -16 28 -8 -4 -17 -1
-21 5 -4 6 -3 9 2 6 16 -10 56 11 47 24 -12 20 -3 51 20 71 20 16 20 17 2 10
-11 -3 -24 -12 -28 -20 -4 -7 -12 -13 -17 -13 -11 0 -8 60 4 79 5 8 10 27 12
42 4 31 -22 54 -50 43 -9 -3 -16 -1 -16 5 0 17 31 26 40 11 15 -24 20 8 6 36
-10 19 -12 33 -5 45 12 24 11 39 -2 17 -14 -25 -33 -23 -19 1 12 24 13 42 1
22 -10 -16 -31 -6 -31 15 0 8 -7 14 -15 14 -8 0 -15 5 -15 12 0 6 3 9 6 5 4
-3 13 1 21 9 9 8 12 18 9 22 -4 3 -11 0 -15 -7 -7 -11 -13 -9 -30 8 -24 24
-28 56 -6 65 9 3 15 17 14 33 l-1 28 -7 -30 c-4 -20 -9 -26 -14 -17 -5 7 -13
10 -18 7 -15 -10 -10 2 7 20 17 17 28 65 15 65 -4 0 -13 -6 -20 -12 -11 -11
-12 -9 -6 9 5 18 3 22 -9 17 -13 -5 -15 0 -10 27 3 19 7 39 9 46 8 25 -15 23
-27 -1 -13 -31 -28 -35 -21 -6 3 11 9 20 14 20 5 0 9 9 9 20 0 14 5 18 18 13
15 -6 15 -5 -1 12 -16 15 -20 16 -29 4 -7 -10 -8 -6 -3 14 4 19 2 26 -5 22 -5
-3 -17 0 -25 8 -12 13 -12 16 -1 20 9 4 12 14 9 26 -3 12 -1 21 6 21 6 0 11 5
11 11 0 6 -7 8 -15 5 -21 -8 -55 15 -55 36 0 10 -9 18 -22 20 -20 3 -23 8 -21
46 1 30 -2 42 -12 42 -20 0 -28 17 -21 46 5 19 11 24 25 19 11 -3 22 -1 26 4
3 6 0 8 -8 5 -21 -8 -31 14 -16 32 10 12 9 13 -6 7 -14 -5 -17 -3 -13 9 8 20
-10 38 -29 31 -13 -5 -13 -2 -5 14 6 11 18 25 26 32 9 8 13 17 10 22 -4 8 -32
-17 -72 -65 -22 -27 -35 -17 -13 10 24 31 27 134 4 134 -7 0 -13 -10 -13 -22
-1 -21 -2 -21 -11 -5 -12 20 9 47 35 47 9 0 16 5 16 10 0 6 -6 10 -14 10 -8 0
-18 -4 -21 -10 -9 -15 -25 -12 -25 5 0 8 6 13 13 10 6 -2 23 10 36 27 23 29
23 30 3 17 -12 -8 -22 -17 -22 -21 0 -5 -7 -8 -16 -8 -11 0 -14 5 -10 16 3 8
1 24 -4 34 -7 13 -7 21 0 25 5 3 10 13 10 22 0 12 -3 13 -15 3 -22 -18 -33 -5
-29 37 1 21 -2 41 -8 44 -6 4 -14 24 -17 45 -6 36 -7 37 -24 20 -13 -14 -17
-14 -17 -3 0 8 7 20 15 27 19 16 19 30 -1 30 -9 0 -12 5 -8 12 5 7 2 9 -9 5
-11 -4 -14 -2 -11 8 3 8 2 20 -2 26 -5 9 -10 7 -15 -7 -5 -13 -8 -5 -8 27 -1
28 -7 51 -16 59 -8 7 -15 19 -15 26 0 8 -4 14 -10 14 -5 0 -10 -7 -10 -15 0
-8 -4 -15 -10 -15 -5 0 -10 6 -10 13 0 7 -9 23 -19 34 -21 23 -18 35 6 26 8
-3 2 7 -14 23 -15 16 -34 27 -41 26 -10 -2 -12 3 -7 17 6 20 -2 26 -32 22 -6
-1 -14 8 -18 19 -5 16 -10 18 -25 10 -16 -8 -20 -5 -30 24 -11 35 -53 71 -70
61 -6 -3 -10 -2 -10 3 0 5 -10 8 -22 7 -11 -1 -46 11 -77 27 -30 16 -61 26
-69 23 -7 -2 -15 1 -18 8 -2 7 -19 13 -37 13 -43 0 -100 21 -92 34 3 6 0 7 -9
4 -9 -3 -16 -14 -16 -24 0 -11 -4 -21 -9 -24 -5 -3 -7 11 -4 32 l5 37 -19 -22
c-17 -20 -20 -20 -30 -5 -10 16 -12 15 -27 -3 -13 -17 -15 -18 -16 -3 0 21
-37 33 -55 18 -10 -9 -16 -7 -25 7 -7 12 -10 13 -7 3 3 -10 -2 -16 -14 -16
-11 0 -19 5 -19 11 0 5 -8 1 -16 -10 -16 -19 -16 -19 -11 8 2 15 0 30 -5 33
-4 3 -7 0 -6 -8 5 -21 -110 -14 -132 8 -6 6 -21 41 -34 79 -14 39 -25 62 -25
53z m829 -328 c0 -5 -4 -10 -10 -10 -5 0 -10 5 -10 10 0 6 5 10 10 10 6 0 10
-4 10 -10z m167 -182 c-3 -8 -6 -5 -6 6 -1 11 2 17 5 13 3 -3 4 -12 1 -19z
m189 -315 c-10 -10 -19 5 -10 18 6 11 8 11 12 0 2 -7 1 -15 -2 -18z m14 -80
c-11 -17 -11 -17 -6 0 3 10 6 24 7 30 0 9 2 9 5 0 3 -7 0 -20 -6 -30z m168
-322 c11 -3 -26 -28 -41 -28 -16 0 -23 17 -12 29 4 4 37 3 53 -1z m0 -43 c-3
-7 -13 -15 -24 -17 -16 -3 -17 -1 -5 13 16 19 34 21 29 4z m192 -698 c0 -5 -5
-10 -11 -10 -5 0 -7 5 -4 10 3 6 8 10 11 10 2 0 4 -4 4 -10z m40 -10 c0 -5 -7
-10 -16 -10 -8 0 -12 5 -9 10 3 6 10 10 16 10 5 0 9 -4 9 -10z m-3 -92 c-3 -7
-5 -2 -5 12 0 14 2 19 5 13 2 -7 2 -19 0 -25z m73 -48 c0 -11 -2 -20 -4 -20
-2 0 -6 9 -9 20 -3 11 -1 20 4 20 5 0 9 -9 9 -20z m40 -80 c0 -5 -6 -10 -12
-10 -9 0 -8 -4 2 -10 13 -9 13 -11 0 -19 -8 -5 -18 -7 -22 -5 -10 6 -11 38 -1
47 10 11 33 8 33 -3z m120 -630 c0 -5 -4 -10 -9 -10 -6 0 -13 5 -16 10 -3 6 1
10 9 10 9 0 16 -4 16 -10z m171 -407 c-12 -20 -14 -14 -5 12 4 9 9 14 11 11 3
-2 0 -13 -6 -23z m-37 -69 c3 -8 2 -12 -4 -9 -6 3 -10 10 -10 16 0 14 7 11 14
-7z m56 -24 c0 -5 -8 -14 -17 -20 -13 -8 -14 -13 -5 -16 16 -7 15 -21 -1 -27
-9 -3 -12 5 -11 32 1 20 2 37 3 39 3 7 31 1 31 -8z m26 -257 c-3 -4 -6 0 -6 7
0 9 -5 8 -19 -4 -11 -10 -21 -13 -25 -7 -4 5 3 12 14 16 11 3 20 12 20 18 0 7
5 4 11 -6 6 -10 8 -21 5 -24z m-4 -129 c-6 -12 -9 -7 -9 16 0 23 3 28 9 16 5
-9 5 -23 0 -32z m-148 -4942 c2 -4 -4 -8 -14 -8 -10 0 -16 4 -14 8 3 4 9 8 14
8 5 0 11 -4 14 -8z m-44 -55 c0 -18 -2 -19 -10 -7 -13 20 -13 43 0 35 6 -3 10
-16 10 -28z m-117 -38 c-4 -15 -8 -17 -14 -8 -6 11 4 28 18 29 0 0 -1 -9 -4
-21z m-63 -69 c0 -5 -7 -10 -15 -10 -8 0 -15 5 -15 10 0 6 7 10 15 10 8 0 15
-4 15 -10z m-114 -48 c-4 -11 -14 -23 -23 -27 -15 -5 -15 -4 0 13 9 10 17 25
17 32 0 7 3 11 6 7 3 -3 3 -14 0 -25z m-222 12 c9 -3 16 -11 16 -16 0 -6 -6
-5 -15 2 -8 6 -20 8 -26 4 -8 -4 -9 -3 -5 4 8 14 9 14 30 6z m143 -16 c-3 -8
-6 -5 -6 6 -1 11 2 17 5 13 3 -3 4 -12 1 -19z m143 18 c0 -2 -3 -11 -6 -20 -9
-23 -24 -20 -24 4 0 11 7 20 15 20 8 0 15 -2 15 -4z m-210 -46 c-8 -5 -19 -10
-25 -10 -5 0 -3 5 5 10 8 5 20 10 25 10 6 0 3 -5 -5 -10z m77 -30 c-1 -12 -5
-16 -10 -11 -5 5 -6 14 -3 20 11 16 15 13 13 -9z m-357 -10 c0 -5 -4 -10 -10
-10 -5 0 -10 5 -10 10 0 6 5 10 10 10 6 0 10 -4 10 -10z m60 0 c0 -5 -4 -10
-10 -10 -5 0 -10 5 -10 10 0 6 5 10 10 10 6 0 10 -4 10 -10z m-64 -42 c4 -7 4
-10 -1 -6 -4 4 -17 2 -29 -4 -19 -10 -20 -10 -7 5 16 20 27 21 37 5z m-398
-63 c-3 -3 -9 2 -12 12 -6 14 -5 15 5 6 7 -7 10 -15 7 -18z m-31 -17 c-3 -8
-6 -5 -6 6 -1 11 2 17 5 13 3 -3 4 -12 1 -19z m97 13 c3 -5 -1 -12 -10 -15
-20 -8 -29 -1 -19 13 8 13 22 14 29 2z m-277 -68 c-3 -10 -5 -2 -5 17 0 19 2
27 5 18 2 -10 2 -26 0 -35z m241 28 c3 -8 -1 -12 -9 -9 -7 2 -15 10 -17 17 -3
8 1 12 9 9 7 -2 15 -10 17 -17z m-158 -6 c8 5 11 4 7 -2 -10 -16 -47 -23 -47
-9 0 19 13 28 21 15 4 -6 12 -8 19 -4z m100 -1 c0 -2 -7 -4 -15 -4 -8 0 -15 4
-15 10 0 5 7 7 15 4 8 -4 15 -8 15 -10z m190 -49 c0 -5 -5 -3 -10 5 -5 8 -10
20 -10 25 0 6 5 3 10 -5 5 -8 10 -19 10 -25z m-460 4 c0 -6 -4 -7 -10 -4 -5 3
-10 11 -10 16 0 6 5 7 10 4 6 -3 10 -11 10 -16z m47 -21 c-3 -8 -6 -5 -6 6 -1
11 2 17 5 13 3 -3 4 -12 1 -19z m73 -40 c0 -29 -8 -52 -21 -68 -17 -20 -19
-21 -14 -5 4 11 12 41 18 68 5 26 11 47 13 47 2 0 4 -19 4 -42z m-373 -123
c14 -14 13 -18 -7 -35 -26 -22 -36 -25 -45 -10 -3 5 2 10 12 10 15 0 16 2 3
11 -12 8 -10 9 8 4 13 -4 22 -2 22 4 0 6 -4 11 -10 11 -5 0 -10 5 -10 10 0 14
9 12 27 -5z m-152 -47 c5 -4 0 -6 -12 -6 -13 1 -19 7 -16 15 3 8 8 10 12 6 3
-4 10 -11 16 -15z"/>
<path d="M3120 9324 c-19 -14 -64 -44 -99 -67 -52 -33 -67 -50 -78 -81 l-13
-40 25 24 c23 22 25 22 19 5 -10 -29 -43 -64 -87 -92 -61 -39 -77 -59 -77
-100 0 -53 51 -132 85 -132 6 0 1 6 -9 14 -11 8 -16 15 -12 15 5 0 3 6 -3 14
-16 20 -10 117 8 124 7 3 25 16 40 30 14 13 38 29 53 34 19 7 28 19 34 46 6
29 9 32 12 15 6 -41 18 -24 16 22 -3 42 2 50 27 47 4 -1 5 7 2 17 -3 14 2 21
19 26 12 4 35 16 50 26 16 12 29 16 33 9 15 -24 21 -7 12 30 -6 22 -14 40 -17
39 -3 0 -21 -12 -40 -25z"/>
<path d="M8800 9195 c-14 -16 -3 -20 19 -6 8 5 9 11 3 15 -5 3 -15 -1 -22 -9z"/>
<path d="M8910 9151 c0 -12 5 -21 10 -21 6 0 10 6 10 14 0 8 -4 18 -10 21 -5
3 -10 -3 -10 -14z"/>
<path d="M3241 9079 c-12 -12 -30 -22 -39 -23 -9 -2 -17 -8 -17 -15 0 -22 -88
-137 -126 -164 -47 -34 -110 -57 -158 -57 l-36 -1 25 -14 c44 -25 95 -19 130
15 17 17 35 30 40 30 5 0 32 23 59 50 27 28 54 50 59 50 5 0 17 9 28 21 10 11
33 27 51 34 33 14 42 40 27 79 -8 21 -16 20 -43 -5z m-232 -253 c-2 -2 -15 -9
-29 -15 -24 -11 -24 -11 -6 3 16 13 49 24 35 12z m-72 -22 c-3 -3 -12 -4 -19
-1 -8 3 -5 6 6 6 11 1 17 -2 13 -5z"/>
<path d="M9230 8880 c0 -5 5 -10 11 -10 5 0 7 5 4 10 -3 6 -8 10 -11 10 -2 0
-4 -4 -4 -10z"/>
<path d="M9367 8737 c-3 -7 3 -13 13 -13 10 0 16 6 13 13 -3 7 -9 13 -13 13
-4 0 -10 -6 -13 -13z"/>
<path d="M9408 8581 c12 -10 22 -28 22 -40 0 -11 5 -21 10 -21 6 0 10 4 10 9
0 5 3 16 6 25 3 9 1 16 -6 16 -6 0 -18 7 -26 15 -9 8 -20 15 -26 15 -6 0 -1
-8 10 -19z"/>
<path d="M9456 8462 c-2 -4 -1 -14 4 -22 7 -11 9 -9 7 8 -1 24 -3 26 -11 14z"/>
<path d="M9517 8333 c-4 -3 -7 -11 -7 -17 0 -6 5 -5 12 2 6 6 9 14 7 17 -3 3
-9 2 -12 -2z"/>
<path d="M9597 8003 c-10 -9 -8 -43 2 -43 5 0 14 6 20 14 8 10 8 16 -2 25 -8
6 -17 8 -20 4z"/>
<path d="M9655 8000 c-3 -5 -1 -10 4 -10 6 0 11 5 11 10 0 6 -2 10 -4 10 -3 0
-8 -4 -11 -10z"/>
<path d="M9715 7800 c3 -5 8 -10 11 -10 2 0 4 5 4 10 0 6 -5 10 -11 10 -5 0
-7 -4 -4 -10z"/>
<path d="M9756 7671 c-3 -5 1 -14 8 -20 12 -10 13 -8 9 8 -6 23 -9 25 -17 12z"/>
<path d="M9773 7484 c-6 -16 12 -34 32 -33 6 0 4 3 -2 6 -7 2 -13 11 -13 19 0
8 6 11 17 7 11 -4 14 -3 9 5 -10 17 -36 15 -43 -4z"/>
<path d="M5488 7463 c7 -3 16 -2 19 1 4 3 -2 6 -13 5 -11 0 -14 -3 -6 -6z"/>
<path d="M5553 7432 c11 -11 16 -25 13 -31 -4 -5 -2 -13 4 -16 6 -4 9 -1 8 7
-2 7 5 12 14 12 25 -2 13 13 -25 32 l-32 17 18 -21z"/>
<path d="M5620 7400 c0 -6 5 -10 10 -10 6 0 10 -8 11 -17 0 -11 3 -13 6 -6 4
10 10 10 26 -2 24 -17 51 -20 42 -5 -3 6 -15 10 -26 10 -10 0 -19 4 -19 8 0 5
-11 14 -25 20 -15 7 -25 8 -25 2z"/>
<path d="M5545 7369 c-4 -6 -5 -12 -2 -15 2 -3 7 2 10 11 7 17 1 20 -8 4z"/>
<path d="M6220 7329 c-105 -67 -154 -114 -220 -210 -83 -122 -113 -206 -114
-324 -1 -83 2 -95 32 -152 18 -35 36 -63 41 -63 11 0 24 35 50 130 51 185 74
250 112 327 22 45 50 90 61 100 20 18 20 18 15 -22 -3 -22 -39 -141 -81 -265
-67 -199 -88 -280 -71 -280 21 0 130 67 160 97 45 46 98 148 121 234 34 126
13 469 -29 469 -7 0 -41 -19 -77 -41z"/>
<path d="M5730 7340 c0 -6 7 -13 15 -16 18 -7 20 -35 3 -52 -18 -18 -27 -15
-23 8 2 11 -1 20 -7 20 -6 0 -8 -12 -4 -32 4 -24 3 -29 -4 -18 -7 12 -10 8
-10 -17 0 -17 6 -33 13 -36 6 -2 9 -8 5 -12 -14 -14 -40 25 -34 50 3 13 2 27
-4 30 -5 3 -10 20 -10 37 0 42 -12 28 -16 -19 -2 -25 0 -32 7 -23 7 12 9 12 9
-3 0 -11 -5 -17 -12 -14 -7 2 -12 14 -11 26 2 13 -1 20 -7 16 -13 -8 -13 -85
0 -85 6 0 10 -4 10 -10 0 -11 -30 -13 -54 -4 -24 9 -19 27 5 21 21 -6 21 -3
16 48 -4 42 -3 53 8 49 7 -3 16 -1 20 5 8 14 -20 14 -46 1 -11 -6 -18 -20 -18
-33 1 -17 2 -18 6 -4 7 26 23 10 23 -23 0 -22 -6 -29 -26 -34 -32 -8 -41 -1
-24 19 7 9 10 18 7 22 -11 10 -37 -18 -37 -41 0 -11 -9 -32 -20 -46 l-20 -25
7 34 c6 32 5 33 -16 22 -11 -7 -21 -18 -21 -26 0 -8 -4 -15 -8 -15 -5 0 -14
-11 -20 -25 -10 -22 -9 -25 8 -25 11 0 20 7 20 15 0 8 4 15 10 15 6 0 6 -9 0
-24 -6 -17 -5 -26 3 -30 9 -5 9 -7 0 -12 -18 -8 -16 -25 2 -18 9 4 16 -3 21
-21 3 -14 4 -29 0 -32 -3 -4 -6 3 -6 15 0 12 -4 22 -9 22 -13 0 -20 -49 -7
-54 6 -2 1 -5 -11 -5 -25 -1 -30 -15 -11 -27 7 -4 8 -3 4 4 -4 7 -1 12 8 12 8
0 18 -5 21 -11 4 -6 12 -8 19 -6 6 3 12 -3 12 -13 0 -10 -4 -16 -9 -13 -4 2
-13 1 -20 -4 -7 -4 -19 -8 -27 -8 -15 1 -73 34 -96 54 -7 5 -15 7 -18 4 -3 -4
-6 -1 -6 5 0 7 -6 12 -14 12 -14 0 -86 32 -136 60 -14 7 -32 15 -40 16 -8 1
-28 4 -45 8 -16 3 -52 8 -80 11 -39 4 -32 1 31 -14 158 -37 371 -145 524 -264
30 -24 84 -77 121 -119 64 -74 186 -263 209 -323 18 -48 57 -232 70 -335 30
-234 -30 -498 -163 -709 -26 -41 -45 -76 -43 -79 2 -2 35 0 73 3 65 7 70 9 66
30 -3 12 11 60 30 106 58 142 103 297 127 441 23 134 23 138 5 193 -36 115 -1
238 97 341 59 63 91 81 195 114 59 19 70 26 62 39 -4 9 -22 50 -39 92 -17 42
-37 84 -44 94 -15 20 -15 20 -101 -83 -26 -31 -75 -67 -130 -97 -45 -25 -116
-36 -150 -25 -120 40 -185 257 -135 449 12 47 28 97 36 112 7 15 11 36 8 46
-4 13 -3 14 4 5 7 -10 17 -2 41 34 17 26 30 51 29 55 -3 7 -142 111 -190 142
-16 10 -28 13 -28 7z m70 -69 c0 -4 -5 -22 -11 -40 l-11 -32 -20 23 -21 23 6
-33 c4 -21 3 -31 -3 -27 -16 10 -11 57 8 76 18 19 52 25 52 10z m-126 -86 c3
-8 1 -15 -4 -15 -6 0 -10 7 -10 15 0 8 2 15 4 15 2 0 6 -7 10 -15z m-90 -11
c14 -13 14 -19 1 -43 -8 -16 -12 -31 -10 -35 3 -3 0 -3 -5 2 -6 5 -6 19 -1 39
5 17 7 34 3 37 -13 13 -22 4 -22 -22 0 -16 -10 -38 -21 -51 -20 -21 -23 -21
-37 -7 -14 13 -14 18 -3 28 11 11 13 10 8 -4 -8 -21 3 -31 20 -17 7 6 13 26
13 44 0 48 23 60 54 29z m37 -51 c-8 -15 -10 -15 -11 -2 0 17 10 32 18 25 2
-3 -1 -13 -7 -23z m-71 -54 c0 -18 -4 -28 -10 -24 -6 3 -14 -4 -19 -17 -9 -22
-10 -22 -10 -2 -1 12 6 24 14 28 8 3 15 15 15 26 0 11 2 20 5 20 3 0 5 -14 5
-31z"/>
<path d="M5771 7234 c0 -11 3 -14 6 -6 3 7 2 16 -1 19 -3 4 -6 -2 -5 -13z"/>
<path d="M5531 7276 c-8 -9 -11 -19 -7 -23 9 -9 29 13 24 27 -2 8 -8 7 -17 -4z"/>
<path d="M9921 7264 c0 -11 3 -14 6 -6 3 7 2 16 -1 19 -3 4 -6 -2 -5 -13z"/>
<path d="M5481 7246 c-16 -19 -11 -29 8 -17 7 5 12 14 9 21 -3 9 -8 7 -17 -4z"/>
<path d="M5417 7223 c-9 -15 17 -23 34 -11 11 8 11 9 -3 5 -9 -3 -18 -1 -21 6
-2 8 -5 8 -10 0z"/>
<path d="M5390 7160 c0 -5 5 -10 10 -10 6 0 10 5 10 10 0 6 -4 10 -10 10 -5 0
-10 -4 -10 -10z"/>
<path d="M9896 7134 c-9 -24 -2 -26 12 -4 7 11 8 20 3 20 -5 0 -12 -7 -15 -16z"/>
<path d="M4788 7103 c12 -2 30 -2 40 0 9 3 -1 5 -23 4 -22 0 -30 -2 -17 -4z"/>
<path d="M4913 7093 c9 -2 25 -2 35 0 9 3 1 5 -18 5 -19 0 -27 -2 -17 -5z"/>
<path d="M5413 7086 c-6 -8 -9 -16 -6 -19 6 -7 43 15 43 25 0 13 -24 8 -37 -6z"/>
<path d="M4418 7053 c7 -3 16 -2 19 1 4 3 -2 6 -13 5 -11 0 -14 -3 -6 -6z"/>
<path d="M9932 7020 c0 -14 2 -19 5 -12 2 6 2 18 0 25 -3 6 -5 1 -5 -13z"/>
<path d="M9930 6946 c0 -8 5 -18 10 -21 6 -3 10 3 10 14 0 12 -4 21 -10 21 -5
0 -10 -6 -10 -14z"/>
<path d="M5470 6934 c0 -8 5 -12 10 -9 6 3 10 10 10 16 0 5 -4 9 -10 9 -5 0
-10 -7 -10 -16z"/>
<path d="M10101 6634 c0 -11 3 -14 6 -6 3 7 2 16 -1 19 -3 4 -6 -2 -5 -13z"/>
<path d="M10117 6573 c-4 -3 -7 -11 -7 -17 0 -6 5 -5 12 2 6 6 9 14 7 17 -3 3
-9 2 -12 -2z"/>
<path d="M10030 6526 c0 -9 7 -16 16 -16 9 0 14 5 12 12 -6 18 -28 21 -28 4z"/>
<path d="M4831 6514 c0 -11 3 -14 6 -6 3 7 2 16 -1 19 -3 4 -6 -2 -5 -13z"/>
<path d="M10075 6520 c-3 -5 -2 -10 4 -10 5 0 13 5 16 10 3 6 2 10 -4 10 -5 0
-13 -4 -16 -10z"/>
<path d="M4847 6470 c3 -14 12 -41 20 -60 11 -30 12 -31 8 -6 -4 16 -13 43
-20 60 -11 23 -13 25 -8 6z"/>
<path d="M6396 6394 c-88 -27 -132 -51 -193 -107 -34 -32 -44 -49 -53 -95 -7
-31 -16 -79 -22 -105 -6 -26 -8 -50 -6 -52 2 -3 36 37 74 88 102 136 137 177
151 177 7 0 13 -2 13 -5 0 -20 -57 -124 -104 -188 -59 -82 -78 -116 -91 -156
-7 -23 -6 -23 31 -16 90 16 191 82 244 160 39 57 80 185 83 260 2 58 1 60 -23
62 -14 0 -60 -10 -104 -23z"/>
<path d="M10088 6375 c-4 -19 -1 -25 12 -25 13 0 16 6 12 25 -2 14 -8 25 -12
25 -4 0 -10 -11 -12 -25z"/>
<path d="M10165 6390 c-3 -5 -2 -18 4 -27 7 -14 9 -12 8 10 -2 30 -3 31 -12
17z"/>
<path d="M2741 6372 c-18 -13 -10 -37 52 -152 94 -177 166 -270 247 -317 85
-51 110 -62 165 -73 59 -12 180 -6 190 10 6 9 -79 93 -136 136 -19 14 -84 62
-145 107 -152 112 -213 167 -186 167 30 0 161 -62 229 -108 32 -22 111 -86
175 -141 64 -56 121 -101 127 -101 13 0 4 60 -20 128 -55 162 -191 276 -389
326 -76 19 -289 32 -309 18z"/>
<path d="M10100 6279 c0 -5 5 -7 10 -4 6 3 10 8 10 11 0 2 -4 4 -10 4 -5 0
-10 -5 -10 -11z"/>
<path d="M5360 6275 c0 -5 5 -17 10 -25 5 -8 10 -10 10 -5 0 6 -5 17 -10 25
-5 8 -10 11 -10 5z"/>
<path d="M10161 6254 c0 -11 3 -14 6 -6 3 7 2 16 -1 19 -3 4 -6 -2 -5 -13z"/>
<path d="M3390 6256 c0 -2 8 -10 18 -17 15 -13 16 -12 3 4 -13 16 -21 21 -21
13z"/>
<path d="M4921 6234 c0 -11 3 -14 6 -6 3 7 2 16 -1 19 -3 4 -6 -2 -5 -13z"/>
<path d="M5381 6212 c-1 -13 3 -31 8 -41 11 -20 20 -101 14 -118 -3 -7 -11
-13 -19 -13 -8 0 -14 -6 -14 -14 0 -8 -9 -18 -20 -21 -11 -3 -20 -13 -20 -22
0 -13 -3 -13 -15 -3 -8 7 -15 23 -15 36 0 12 -5 26 -10 29 -7 4 -9 -2 -4 -19
6 -26 -10 -38 -18 -14 -2 6 -10 8 -16 4 -14 -8 -16 -46 -3 -46 5 0 7 10 4 23
-4 19 -3 19 6 5 12 -19 5 -48 -13 -48 -6 0 -4 -5 4 -10 13 -8 12 -10 -2 -10
-10 0 -18 5 -18 11 0 5 -5 7 -11 3 -6 -3 -9 -15 -6 -25 3 -11 1 -17 -4 -13 -5
3 -9 -2 -9 -10 0 -14 19 -21 43 -17 5 1 6 -3 2 -8 -3 -6 -12 -8 -20 -4 -8 3
-15 1 -15 -4 0 -4 -38 -21 -85 -38 -48 -16 -87 -36 -90 -45 -2 -8 0 -32 4 -52
5 -22 5 -38 0 -38 -5 0 -9 -9 -9 -20 0 -22 15 -27 23 -7 4 8 6 8 6 -2 1 -8 -6
-23 -16 -33 -9 -11 -11 -18 -5 -18 7 0 12 -8 12 -17 0 -14 -3 -13 -16 5 -8 12
-12 28 -9 35 4 6 -1 3 -9 -7 -9 -11 -16 -23 -16 -27 0 -4 -15 -5 -32 -4 -49 4
-71 -11 -65 -44 5 -24 3 -27 -25 -29 -31 -3 -69 -26 -86 -53 -9 -14 -7 -16 9
-12 12 3 26 16 31 29 6 13 17 24 25 24 11 0 10 -5 -2 -24 -9 -13 -23 -27 -31
-30 -8 -3 -14 -12 -14 -21 0 -8 -9 -15 -20 -15 -11 0 -20 -4 -20 -9 0 -5 -8
-12 -17 -14 -14 -4 -12 -5 5 -6 29 -1 30 -43 1 -70 l-21 -19 21 -47 c18 -41
24 -47 43 -41 13 3 73 17 133 32 192 45 220 56 223 84 1 14 -9 68 -22 120 -51
191 -76 276 -88 298 -8 15 -8 26 -1 33 5 5 63 25 129 43 184 51 292 87 297
100 6 14 -22 116 -61 226 -17 47 -31 75 -31 62z m59 -233 c0 -5 -4 -9 -10 -9
-5 0 -10 4 -10 10 0 5 -8 7 -17 4 -14 -5 -15 -4 -4 4 15 11 41 5 41 -9z m-30
-24 c0 -8 -4 -15 -10 -15 -5 0 -10 7 -10 15 0 8 5 15 10 15 6 0 10 -7 10 -15z
m-105 -25 c3 -5 1 -10 -4 -10 -6 0 -11 5 -11 10 0 6 2 10 4 10 3 0 8 -4 11
-10z m62 -12 c-3 -8 -6 -5 -6 6 -1 11 2 17 5 13 3 -3 4 -12 1 -19z m-427 -342
c0 -3 -4 -8 -10 -11 -5 -3 -10 -1 -10 4 0 6 5 11 10 11 6 0 10 -2 10 -4z m21
-23 c-12 -20 -14 -14 -5 12 4 9 9 14 11 11 3 -2 0 -13 -6 -23z m-61 -57 c0 -3
-4 -8 -10 -11 -5 -3 -10 -1 -10 4 0 6 5 11 10 11 6 0 10 -2 10 -4z"/>
<path d="M3466 6143 c21 -39 43 -69 47 -66 4 3 4 10 -1 16 -5 7 -12 25 -16 40
-4 15 -11 25 -16 22 -5 -3 -11 3 -15 14 -3 11 -13 25 -22 33 -9 7 1 -19 23
-59z"/>
<path d="M6503 6091 c-47 -97 -141 -168 -270 -207 -59 -17 -63 -20 -69 -54
-36 -207 -135 -498 -191 -562 -17 -19 -19 -19 92 -38 48 -8 168 -56 276 -111
20 -9 29 -2 29 23 0 11 22 74 48 141 94 235 124 398 125 663 0 186 -7 213 -40
145z"/>
<path d="M3571 6051 c-1 -24 2 -32 9 -25 7 7 7 19 1 35 -9 23 -10 22 -10 -10z"/>
<path d="M5316 6031 c-4 -7 -5 -15 -2 -18 9 -9 19 4 14 18 -4 11 -6 11 -12 0z"/>
<path d="M3568 5966 c-3 -14 -1 -31 3 -38 6 -8 9 1 9 25 0 42 -6 48 -12 13z"/>
<path d="M3540 5930 c0 -5 5 -10 11 -10 5 0 7 5 4 10 -3 6 -8 10 -11 10 -2 0
-4 -4 -4 -10z"/>
<path d="M7005 5883 c-129 -11 -271 -55 -301 -94 -17 -21 -25 -63 -18 -97 l6
-31 62 24 c33 13 101 40 149 60 48 20 104 39 123 42 31 5 36 3 32 -13 -2 -10
-17 -28 -35 -40 -35 -23 -284 -114 -313 -114 -21 0 -25 -4 -34 -43 -6 -25 -3
-29 31 -44 50 -21 178 -13 252 16 76 29 156 85 185 129 24 35 76 173 76 200 0
12 -106 15 -215 5z"/>
<path d="M3540 5837 c-20 -33 -51 -51 -120 -70 -8 -2 -1 -6 17 -9 18 -2 30 -1
28 3 -3 4 11 10 30 13 19 4 38 14 43 23 8 13 12 12 26 -8 17 -24 18 -24 13 24
-2 26 -7 50 -10 53 -3 4 -16 -10 -27 -29z"/>
<path d="M7882 5835 c-23 -10 -39 -28 -53 -61 -45 -100 17 -204 121 -204 54 0
119 47 134 97 10 32 -11 93 -48 137 -27 31 -40 39 -77 42 -26 3 -57 -2 -77
-11z m125 -57 c48 -53 53 -107 13 -143 -20 -18 -95 -36 -116 -28 -19 7 -44 67
-44 107 0 51 36 86 88 86 27 0 44 -7 59 -22z"/>
<path d="M7913 5763 c-17 -6 -16 -56 1 -98 8 -19 17 -35 19 -35 2 0 3 31 3 70
-1 38 -3 70 -6 69 -3 0 -11 -3 -17 -6z"/>
<path d="M7973 5743 c-15 -5 -18 -59 -4 -67 14 -9 39 3 46 22 7 18 -24 52 -42
45z"/>
<path d="M3581 5724 c0 -11 3 -14 6 -6 3 7 2 16 -1 19 -3 4 -6 -2 -5 -13z"/>
<path d="M3591 5685 c0 -11 4 -29 9 -40 8 -18 9 -18 9 5 0 14 -4 32 -9 40 -8
12 -10 12 -9 -5z"/>
<path d="M3488 5666 c-13 -7 -29 -11 -36 -8 -6 2 -12 -1 -12 -7 0 -6 -7 -8
-15 -5 -8 4 -15 1 -15 -5 0 -6 -8 -11 -17 -12 -10 0 2 -8 27 -17 75 -28 128
-61 152 -92 22 -30 22 -30 30 -9 8 21 9 21 28 4 25 -23 25 -8 2 55 -11 29 -23
45 -34 46 -58 3 -62 4 -50 16 17 17 15 23 -12 36 -17 8 -30 7 -48 -2z"/>
<path d="M4987 5643 c-4 -3 -7 -13 -7 -22 1 -13 3 -13 11 2 11 19 8 33 -4 20z"/>
<path d="M3050 5625 c0 -8 4 -15 10 -15 5 0 7 7 4 15 -4 8 -8 15 -10 15 -2 0
-4 -7 -4 -15z"/>
<path d="M4390 5630 c-18 -12 -2 -12 25 0 13 6 15 9 5 9 -8 0 -22 -4 -30 -9z"/>
<path d="M4651 5594 c0 -11 3 -14 6 -6 3 7 2 16 -1 19 -3 4 -6 -2 -5 -13z"/>
<path d="M4889 5593 c-13 -16 -12 -17 4 -4 9 7 17 15 17 17 0 8 -8 3 -21 -13z"/>
<path d="M4874 5559 c-3 -6 -1 -16 5 -22 8 -8 11 -5 11 11 0 24 -5 28 -16 11z"/>
<path d="M5789 5544 c-5 -15 -8 -29 -5 -31 2 -2 8 10 14 26 13 38 5 41 -9 5z"/>
<path d="M3165 5549 c-103 -16 -165 -37 -165 -58 0 -25 69 -128 116 -173 101
-95 305 -123 414 -56 l33 20 -26 25 c-18 19 -48 30 -111 44 -86 18 -236 83
-236 102 0 15 87 2 194 -29 52 -15 101 -24 110 -21 15 6 15 10 1 44 -19 44
-41 70 -75 88 -34 17 -181 26 -255 14z"/>
<path d="M3780 5536 c0 -8 4 -17 9 -20 5 -4 7 3 4 14 -6 23 -13 26 -13 6z"/>
<path d="M5740 5435 c-14 -25 -27 -45 -30 -45 -3 0 -14 -15 -24 -32 -11 -18
-53 -71 -95 -117 -42 -46 -66 -79 -54 -73 49 26 248 291 231 307 -2 3 -15 -16
-28 -40z"/>
<path d="M3824 5446 c13 -38 99 -175 138 -217 l40 -44 -34 45 c-41 55 -76 107
-118 180 -18 30 -29 46 -26 36z"/>
<path d="M7995 5416 c-110 -35 -186 -100 -237 -203 -44 -90 -51 -205 -18 -296
29 -79 57 -123 108 -169 92 -83 215 -120 331 -99 73 13 157 48 207 86 17 13
54 51 83 84 l52 60 -67 31 c-38 17 -76 38 -86 47 -14 13 -20 13 -33 3 -8 -7
-15 -18 -15 -24 0 -19 -62 -74 -102 -90 -69 -29 -163 -16 -218 31 -36 29 -28
48 23 58 66 13 432 118 441 126 13 11 -19 121 -52 182 -38 71 -131 153 -194
172 -62 18 -167 19 -223 1z m190 -192 c14 -9 33 -30 41 -47 19 -36 14 -41 -61
-58 -27 -6 -88 -22 -135 -35 -107 -30 -110 -30 -110 5 0 65 41 121 112 151 33
14 121 5 153 -16z"/>
<path d="M3700 5368 c17 -51 14 -71 -10 -74 -23 -3 -25 -5 -15 -12 6 -4 23
-27 40 -51 48 -70 239 -241 436 -389 39 -29 69 -92 44 -92 -29 0 -240 136
-350 225 -87 70 -156 138 -203 200 -25 33 -47 62 -49 64 -2 3 -16 -8 -31 -22
-16 -15 -33 -27 -39 -27 -6 0 -17 -7 -24 -17 -12 -14 -12 -16 1 -11 8 2 20 0
25 -6 15 -15 27 -49 16 -42 -16 10 1 -38 20 -56 17 -17 18 -16 22 5 4 19 4 18
6 -5 0 -16 6 -28 12 -28 6 0 8 -7 5 -16 -4 -10 -2 -13 6 -8 7 5 9 0 6 -14 -4
-12 -2 -20 3 -16 5 3 9 1 9 -5 0 -5 -4 -13 -10 -16 -5 -3 -10 -12 -10 -18 0
-7 4 -6 10 3 8 13 10 13 10 -1 0 -25 -32 -33 -47 -13 -12 16 -13 16 -13 2 0
-9 8 -19 18 -22 10 -3 23 -20 29 -37 10 -25 9 -29 -1 -19 -10 8 -15 7 -20 -5
-3 -8 -12 -15 -20 -15 -10 0 -13 -6 -10 -15 4 -8 2 -15 -4 -15 -5 0 -12 -11
-14 -25 -4 -17 -1 -25 8 -25 17 0 17 -5 4 -30 -7 -13 -7 -21 0 -25 6 -3 13 1
16 9 10 25 19 19 19 -13 0 -20 -3 -26 -11 -20 -6 5 -13 6 -17 3 -3 -3 -10 3
-16 14 -6 11 -7 22 -4 26 3 3 -6 6 -20 6 -15 0 -27 4 -27 9 0 5 -12 16 -27 25
-16 10 4 -14 43 -51 78 -75 245 -195 313 -226 53 -23 76 -20 179 29 97 45 192
54 330 30 90 -16 94 -16 133 4 22 12 77 49 122 84 45 35 97 72 115 83 l32 20
-87 6 c-111 8 -294 54 -401 100 -58 25 -110 58 -174 112 -50 42 -98 81 -107
88 -67 50 -198 222 -255 335 -14 28 -28 52 -30 52 -2 0 5 -24 14 -52z m40 -95
c0 -7 -4 -13 -10 -13 -5 0 -10 5 -10 11 0 5 -4 7 -10 4 -5 -3 -10 -2 -10 4 0
5 9 9 20 8 11 -1 20 -7 20 -14z m39 -57 c-3 -3 -11 5 -18 17 -13 21 -12 21 5
5 10 -10 16 -20 13 -22z m21 -26 c0 -5 -2 -10 -4 -10 -3 0 -8 5 -11 10 -3 6
-1 10 4 10 6 0 11 -4 11 -10z m20 -30 c0 -5 -2 -10 -4 -10 -3 0 -8 5 -11 10
-3 6 -1 10 4 10 6 0 11 -4 11 -10z m40 -45 c13 -14 21 -25 18 -25 -2 0 -15 11
-28 25 -13 14 -21 25 -18 25 2 0 15 -11 28 -25z m-190 -49 c0 -2 -8 -10 -17
-17 -16 -13 -17 -12 -4 4 13 16 21 21 21 13z m-17 -106 c3 -11 1 -18 -4 -14
-5 3 -9 12 -9 20 0 20 7 17 13 -6z m17 -66 c0 -8 -19 -13 -24 -6 -3 5 1 9 9 9
8 0 15 -2 15 -3z m-60 -84 c0 -5 -4 -10 -10 -10 -5 0 -10 5 -10 10 0 6 5 10
10 10 6 0 10 -4 10 -10z"/>
<path d="M4746 5345 c4 -8 8 -15 10 -15 2 0 4 7 4 15 0 8 -4 15 -10 15 -5 0
-7 -7 -4 -15z"/>
<path d="M7500 5278 c-48 -25 -107 -100 -117 -150 -8 -43 -19 -34 -37 32 -11
40 -22 60 -32 60 -21 0 -167 -41 -177 -50 -4 -4 -3 -20 3 -36 6 -16 29 -94 50
-174 35 -134 142 -523 144 -527 5 -7 186 62 186 71 0 7 -21 93 -46 192 -69
267 -59 316 73 378 29 15 60 26 68 26 9 0 15 9 15 23 0 12 9 54 19 92 11 38
17 73 15 77 -11 18 -120 8 -164 -14z"/>
<path d="M5790 5068 c-177 -62 -295 -179 -336 -333 -21 -77 -18 -211 7 -291
40 -132 145 -267 249 -319 188 -95 435 -65 576 70 56 54 134 153 134 169 0 8
-42 31 -98 53 l-98 40 -30 -56 c-26 -47 -40 -61 -89 -86 -52 -26 -69 -30 -144
-30 -133 0 -202 45 -262 173 -33 67 -48 176 -35 245 11 58 68 122 141 158 60
29 70 31 144 27 61 -4 92 -11 132 -32 28 -14 53 -25 54 -24 1 2 10 18 19 36
10 18 35 51 56 72 l40 40 -43 27 c-86 55 -155 76 -257 80 -79 3 -106 0 -160
-19z"/>
<path d="M6649 5055 c-89 -22 -184 -69 -287 -141 -7 -5 113 -114 130 -120 9
-3 34 6 55 19 65 40 106 52 173 51 75 0 103 -13 130 -57 27 -43 26 -47 -16
-47 -40 0 -215 -45 -254 -65 -62 -32 -120 -121 -120 -183 0 -66 29 -129 81
-176 60 -54 110 -70 198 -63 89 7 167 48 206 110 17 25 35 45 40 44 6 -2 15
-19 21 -38 7 -19 16 -34 20 -34 27 0 177 50 181 60 2 7 -7 39 -20 71 -14 33
-39 109 -56 169 -36 130 -102 315 -125 350 -30 46 -71 59 -191 62 -70 1 -130
-3 -166 -12z m241 -355 c23 -43 23 -107 1 -153 -25 -52 -67 -77 -131 -77 -54
0 -79 14 -96 55 -18 44 -18 75 1 123 15 38 18 39 93 54 106 21 120 21 132 -2z"/>
<path d="M5353 5031 c-23 -16 -63 -41 -89 -55 -27 -14 -45 -25 -40 -26 15 0
144 71 162 91 24 27 13 24 -33 -10z"/>
<path d="M4190 5026 c0 -2 7 -7 16 -10 8 -3 12 -2 9 4 -6 10 -25 14 -25 6z"/>
<path d="M3266 4995 c4 -8 11 -15 16 -15 6 0 5 6 -2 15 -7 8 -14 15 -16 15 -2
0 -1 -7 2 -15z"/>
<path d="M4230 5006 c0 -2 7 -7 16 -10 8 -3 12 -2 9 4 -6 10 -25 14 -25 6z"/>
<path d="M4271 4986 c10 -9 69 -36 69 -32 0 6 -55 36 -66 36 -4 0 -5 -2 -3 -4z"/>
<path d="M3300 4950 c13 -23 20 -26 20 -6 0 8 -7 16 -15 20 -13 4 -14 2 -5
-14z"/>
<path d="M4378 4934 c103 -45 376 -73 549 -56 112 11 200 28 190 38 -2 2 -37
-3 -78 -12 -44 -9 -123 -16 -194 -16 -114 0 -283 10 -296 18 -4 2 -31 6 -60
10 -30 3 -69 13 -88 20 -44 18 -65 16 -23 -2z"/>
<path d="M3330 4912 c0 -5 7 -15 15 -22 8 -7 15 -9 15 -6 0 4 -7 14 -15 22 -8
9 -15 11 -15 6z"/>
<path d="M3389 4843 c42 -57 51 -66 56 -62 3 3 -9 21 -25 39 -17 19 -30 37
-30 42 0 4 -5 8 -11 8 -6 0 -1 -12 10 -27z"/>
<path d="M3035 4810 c-71 -14 -314 -124 -329 -149 -10 -16 51 -78 114 -116 83
-51 177 -72 249 -57 118 25 240 110 257 179 8 31 -59 121 -102 139 -36 15
-124 17 -189 4z m240 -122 c66 -30 -4 -48 -212 -55 -128 -5 -173 -3 -173 5 0
7 1 12 3 12 1 0 34 11 72 25 57 20 90 24 177 25 61 0 118 -5 133 -12z"/>
<path d="M3522 4785 c0 -16 2 -22 5 -12 2 9 2 23 0 30 -3 6 -5 -1 -5 -18z"/>
<path d="M4930 4597 c-124 -35 -205 -99 -255 -200 -62 -127 -56 -247 20 -383
72 -129 186 -194 341 -194 136 0 248 57 342 174 l52 66 -69 35 c-38 19 -72 39
-76 45 -11 17 -20 11 -40 -27 -43 -79 -157 -127 -245 -103 -42 11 -117 76
-104 89 3 3 60 20 127 37 258 65 331 85 349 95 16 9 18 17 13 57 -16 116 -103
240 -202 289 -65 31 -180 41 -253 20z m176 -192 c27 -17 59 -63 51 -71 -11
-12 -299 -94 -308 -89 -14 10 -10 46 11 93 36 79 171 116 246 67z"/>
<path d="M8550 4581 c-14 -26 -13 -74 2 -89 16 -16 51 -15 93 2 42 18 44 34 9
75 -31 37 -87 44 -104 12z"/>
<path d="M8623 4447 c-17 -7 -34 -14 -37 -17 -5 -6 26 -125 63 -235 13 -39 24
-59 33 -56 7 2 27 7 43 10 35 8 35 15 0 136 -13 44 -29 101 -35 128 -13 50
-17 52 -67 34z"/>
<path d="M8344 4366 c-31 -39 -44 -45 -44 -21 0 11 -8 13 -32 8 -18 -3 -36 -9
-41 -12 -4 -4 2 -34 14 -67 11 -32 31 -97 43 -144 l23 -85 38 -3 38 -3 -7 48
c-3 26 -9 80 -12 120 -7 71 -7 72 20 85 41 18 56 3 100 -100 l39 -92 44 0 c24
0 43 5 43 11 0 23 -42 174 -56 200 -23 45 -79 81 -133 87 -46 4 -50 2 -77 -32z"/>
<path d="M4121 4369 c-72 -10 -185 -67 -244 -124 -58 -55 -103 -145 -111 -223
-12 -108 46 -236 150 -331 76 -70 144 -94 264 -95 88 -1 100 2 161 31 85 42
169 129 212 220 28 60 32 78 32 153 0 73 -4 93 -28 142 -58 119 -174 209 -285
223 -26 3 -58 7 -72 9 -14 1 -49 -1 -79 -5z m127 -195 c82 -34 125 -99 126
-189 0 -113 -59 -181 -167 -192 -132 -14 -227 77 -227 218 0 74 27 115 99 152
62 31 114 34 169 11z"/>
<path d="M7981 4296 c-27 -15 -50 -52 -51 -80 0 -17 6 -18 74 -11 72 6 74 6
95 -21 12 -15 21 -41 21 -60 0 -27 -6 -36 -30 -49 -16 -8 -36 -15 -45 -15 -30
0 -48 93 -22 119 6 7 -7 3 -31 -8 -72 -36 -88 -105 -38 -159 49 -55 104 -65
157 -29 21 14 51 23 78 24 24 1 48 6 53 11 9 9 -13 106 -51 227 l-19 60 -83 2
c-56 2 -92 -2 -108 -11z"/>
<path d="M3554 4216 c-44 -19 -134 -135 -134 -173 0 -31 -18 0 -32 57 -8 30
-18 55 -23 54 -11 -1 -178 -47 -183 -50 -4 -2 152 -562 194 -696 l15 -46 90
30 c72 24 89 34 89 49 0 11 -20 96 -45 189 -51 193 -55 238 -22 300 26 50 90
90 143 90 31 0 32 1 39 53 4 28 14 72 21 97 10 34 11 46 1 52 -19 12 -119 8
-153 -6z"/>
<path d="M7659 4191 l-37 -40 -37 19 c-44 22 -58 18 -107 -28 -30 -29 -38 -32
-38 -18 0 13 -5 16 -17 11 -10 -3 -30 -9 -45 -12 -18 -3 -28 -12 -28 -23 0
-18 75 -299 82 -305 2 -3 21 1 41 7 44 13 45 24 21 137 -14 71 -14 76 4 100
10 14 28 27 39 29 22 3 46 -43 79 -156 18 -62 18 -63 48 -56 48 10 51 17 33
99 -22 98 -21 128 2 149 43 39 76 -2 108 -131 l18 -73 35 6 c60 11 60 11 34
113 -32 123 -49 157 -93 187 -55 37 -96 32 -142 -15z"/>
<path d="M2615 4138 c-111 -35 -125 -44 -125 -80 0 -31 -26 -259 -84 -753 -14
-110 -23 -202 -21 -203 2 -2 49 10 104 27 100 31 101 32 102 64 1 18 6 61 13
96 l11 64 155 42 c85 23 167 47 181 53 32 13 42 5 114 -87 34 -43 55 -61 71
-61 30 0 184 49 184 58 0 4 -42 59 -93 122 -50 64 -123 156 -161 205 -79 101
-328 405 -366 445 l-25 27 -60 -19z m154 -392 c50 -65 91 -122 91 -126 0 -4
-25 -13 -56 -19 -32 -7 -82 -22 -112 -32 l-55 -19 7 123 c8 143 16 199 27 195
4 -2 49 -56 98 -122z"/>
<path d="M6607 4069 c-22 -13 -19 -34 30 -209 75 -269 65 -245 103 -242 19 1
39 7 44 12 5 5 0 42 -12 90 -19 74 -20 85 -7 111 22 42 52 55 76 33 21 -19 53
-100 63 -160 l7 -40 45 10 c49 12 51 17 29 90 -8 27 -15 63 -15 80 0 37 -44
102 -81 122 -55 28 -107 14 -138 -37 l-18 -29 -22 77 c-12 43 -24 84 -26 91
-5 15 -53 15 -78 1z"/>
<path d="M7232 4068 c-8 -8 -38 -11 -87 -9 -72 2 -77 1 -105 -28 -32 -31 -39
-65 -16 -74 8 -3 44 -1 81 4 81 11 100 3 116 -51 12 -38 11 -42 -16 -70 -38
-39 -82 -41 -91 -4 -4 14 -4 41 -1 60 5 28 3 34 -13 34 -26 0 -77 -45 -84 -75
-8 -33 18 -90 53 -114 59 -41 111 -34 163 21 l30 32 17 -23 c16 -21 20 -22 60
-11 34 9 42 15 37 28 -3 9 -19 60 -37 112 -53 162 -61 180 -78 180 -10 0 -22
-5 -29 -12z"/>
<path d="M6390 4004 c-174 -46 -180 -48 -173 -76 12 -49 32 -60 95 -53 l57 7
25 -84 c14 -45 35 -122 47 -170 12 -51 27 -88 34 -88 6 0 26 5 44 11 39 14 40
28 2 161 -15 57 -31 124 -35 149 l-7 47 48 8 c44 8 48 12 51 40 5 47 -13 84
-40 83 -13 -1 -79 -16 -148 -35z"/>
<path d="M5940 3900 c-52 -52 4 -111 85 -89 28 8 35 15 35 35 0 32 -42 74 -75
74 -14 0 -34 -9 -45 -20z"/>
<path d="M8673 3768 c-18 -6 -33 -17 -33 -24 0 -10 9 -12 33 -7 40 7 67 21 67
33 0 12 -25 11 -67 -2z"/>
<path d="M6017 3758 c-25 -9 -27 -13 -21 -46 6 -33 32 -126 67 -244 6 -21 17
-38 25 -38 20 0 72 32 72 45 1 15 -104 295 -110 294 -3 0 -18 -5 -33 -11z"/>
<path d="M8200 3686 c-67 -23 -84 -33 -72 -40 14 -8 114 26 120 42 4 14 -1 14
-48 -2z"/>
<path d="M5700 3661 c-36 -36 -40 -37 -40 -15 0 11 -5 14 -17 9 -10 -4 -33
-11 -50 -17 -18 -5 -33 -12 -33 -16 0 -13 88 -303 93 -309 9 -8 79 21 85 35 3
8 -3 49 -13 92 -10 43 -15 89 -11 104 9 35 49 54 72 35 19 -15 78 -136 89
-182 6 -21 12 -26 24 -22 9 4 31 9 49 12 17 3 32 11 32 17 0 18 -55 177 -73
212 -22 43 -60 65 -122 71 -50 5 -56 4 -85 -26z"/>
<path d="M7936 3605 c-3 -8 -17 -20 -31 -27 -14 -6 -25 -15 -25 -19 0 -16 62
-79 77 -79 8 0 32 -13 53 -30 20 -16 40 -27 43 -23 3 3 -2 22 -13 42 -10 20
-21 54 -25 74 -4 22 -18 45 -32 57 -31 24 -39 25 -47 5z m34 -37 c26 -28 22
-52 -8 -56 -42 -6 -69 37 -40 66 17 17 24 15 48 -10z"/>
<path d="M8176 3566 c3 -8 13 -12 27 -8 20 5 20 6 1 13 -29 11 -34 10 -28 -5z"/>
<path d="M7725 3550 c3 -5 10 -10 16 -10 5 0 9 5 9 10 0 6 -7 10 -16 10 -8 0
-12 -4 -9 -10z"/>
<path d="M4675 3533 c-22 -9 -42 -18 -44 -20 -3 -2 7 -40 22 -86 57 -182 97
-320 97 -339 0 -16 5 -19 23 -14 12 4 35 9 51 13 25 5 28 9 22 37 -3 17 -8 41
-12 54 -6 19 -3 22 25 22 21 0 43 -11 68 -34 33 -29 43 -32 78 -28 39 4 65 17
65 32 0 4 -40 34 -89 67 l-89 60 17 29 c10 16 32 53 49 82 18 29 32 54 32 56
0 4 -99 -10 -104 -15 -2 -2 -13 -22 -24 -44 -27 -54 -67 -91 -78 -73 -5 7 -18
58 -29 112 -11 55 -24 101 -30 102 -5 2 -28 -4 -50 -13z"/>
<path d="M5150 3534 c-73 -32 -120 -96 -120 -164 0 -107 117 -198 221 -170 82
22 168 135 155 202 -10 48 -53 98 -110 124 -59 27 -97 29 -146 8z m114 -105
c55 -43 21 -139 -49 -139 -78 0 -112 80 -59 134 32 32 72 34 108 5z"/>
<path d="M7665 3509 c4 -43 15 -67 15 -33 0 11 5 25 12 32 9 9 9 12 0 12 -7 0
-12 7 -12 15 0 8 -4 15 -9 15 -5 0 -8 -18 -6 -41z"/>
<path d="M7611 3525 c1 -19 18 -51 18 -35 0 8 -4 22 -9 30 -5 8 -9 11 -9 5z"/>
<path d="M8233 3513 c-13 -2 -23 -11 -23 -20 0 -13 9 -15 45 -10 44 4 63 12
54 21 -8 8 -54 14 -76 9z"/>
<path d="M7470 3494 c0 -17 22 -14 28 4 2 7 -3 12 -12 12 -9 0 -16 -7 -16 -16z"/>
<path d="M7890 3477 c0 -16 32 -77 40 -77 11 0 17 30 12 53 -2 9 -9 17 -14 17
-6 0 -7 -8 -4 -17 4 -11 -2 -8 -14 7 -11 14 -20 21 -20 17z"/>
<path d="M7322 3450 c0 -14 2 -19 5 -12 2 6 2 18 0 25 -3 6 -5 1 -5 -13z"/>
<path d="M7697 3439 c3 -11 9 -17 12 -11 3 5 15 14 26 20 18 10 17 11 -12 12
-27 0 -30 -3 -26 -21z"/>
<path d="M7481 3438 c-1 -10 -7 -18 -13 -18 -7 0 -30 -5 -51 -11 -34 -9 -37
-12 -31 -37 6 -26 6 -26 -10 -7 -15 19 -16 19 -9 1 5 -14 3 -17 -7 -11 -10 6
-11 0 -5 -31 9 -49 21 -64 53 -64 20 0 23 3 14 12 -7 7 -12 31 -12 55 0 37 3
43 24 49 45 11 60 1 70 -44 7 -30 15 -42 28 -42 14 0 18 8 17 33 0 27 -2 29
-9 12 -8 -20 -9 -20 -9 1 -1 26 -50 125 -50 102z"/>
<path d="M7671 3445 c1 -19 18 -51 18 -35 0 8 -4 22 -9 30 -5 8 -9 11 -9 5z"/>
<path d="M7655 3395 c4 -16 11 -36 17 -43 20 -23 18 -6 -3 34 -18 35 -19 36
-14 9z"/>
<path d="M4235 3398 c-29 -9 -32 -15 -44 -80 -7 -39 -13 -108 -12 -152 l1 -81
-43 46 c-23 25 -59 66 -80 92 -55 68 -103 97 -139 83 -15 -6 -28 -15 -28 -21
0 -6 21 -28 46 -49 25 -21 72 -79 106 -129 33 -51 74 -107 90 -126 34 -39 32
-63 -9 -123 -14 -21 -23 -44 -19 -53 8 -22 78 -20 107 4 21 16 24 32 36 177 8
87 23 202 34 254 35 166 35 170 8 169 -13 -1 -38 -5 -54 -11z"/>
<path d="M7761 3395 c-19 -6 -30 -14 -25 -18 5 -3 16 -2 24 4 21 13 32 11 24
-3 -5 -10 -4 -10 6 -1 22 21 7 31 -29 18z"/>
<path d="M4580 3350 c-8 -5 -48 -10 -87 -10 -65 0 -76 -3 -104 -28 -29 -26
-32 -34 -41 -124 -10 -110 -3 -131 57 -168 49 -31 105 -27 140 10 32 34 45 38
45 14 0 -12 6 -15 23 -11 12 3 39 9 60 12 20 4 37 8 37 9 0 1 -8 18 -19 39
-10 20 -33 88 -52 152 -18 63 -35 115 -39 115 -3 0 -12 -5 -20 -10z m-41 -154
c6 -25 11 -51 11 -59 0 -14 -47 -37 -76 -37 -23 0 -54 43 -54 74 -1 29 -1 30
-15 12 -11 -14 -15 -16 -15 -5 1 35 39 58 96 59 41 0 42 -1 53 -44z"/>
<path d="M6981 3314 c0 -11 3 -14 6 -6 3 7 2 16 -1 19 -3 4 -6 -2 -5 -13z"/>
<path d="M7020 3320 c-11 -7 -5 -8 20 -4 43 8 51 14 19 14 -13 0 -31 -5 -39
-10z"/>
<path d="M6664 3246 c3 -13 15 -43 25 -67 19 -43 20 -43 14 -9 -7 40 -30 100
-39 100 -3 0 -3 -11 0 -24z"/>
<path d="M2987 3090 c-52 -33 -62 -56 -55 -131 4 -35 1 -49 -7 -49 -25 0 -36
-25 -24 -59 8 -22 17 -31 33 -31 19 0 27 -15 59 -104 l38 -104 40 16 c29 11
38 20 34 31 -15 38 -46 184 -42 196 3 7 19 15 36 18 36 7 42 37 15 75 -18 26
-36 28 -54 7 -20 -24 -30 -18 -30 19 0 32 3 35 39 41 22 3 47 12 56 19 16 11
15 16 -15 49 -39 45 -61 46 -123 7z"/>
<path d="M3583 3101 c-53 -25 -68 -50 -46 -80 12 -18 22 -22 47 -17 101 18
101 18 120 -2 10 -11 20 -38 23 -60 5 -37 3 -41 -26 -57 -44 -22 -72 -16 -84
17 -7 22 -4 34 13 58 27 38 15 38 -54 -2 -50 -29 -56 -36 -56 -64 0 -56 74
-124 135 -124 34 0 60 15 95 53 l28 32 7 -28 c4 -15 12 -26 19 -23 6 3 28 10
48 17 l37 12 -19 36 c-10 20 -26 63 -35 96 -23 78 -50 132 -74 145 -32 17
-132 12 -178 -9z"/>
<path d="M3422 3059 c-23 -4 -46 -10 -51 -13 -4 -3 -11 -44 -14 -91 -2 -48 -8
-89 -11 -92 -8 -9 -51 32 -93 90 -36 48 -55 56 -110 41 -36 -10 -42 1 99 -184
88 -115 88 -117 16 -180 l-40 -35 22 -28 c12 -15 30 -27 41 -27 34 0 94 37
107 65 7 15 24 93 37 174 14 80 30 169 36 196 5 28 12 60 15 73 2 12 1 22 -3
21 -5 -1 -27 -5 -51 -10z"/>
<path d="M6290 3061 c0 -6 5 -13 10 -16 6 -3 10 1 10 9 0 9 -4 16 -10 16 -5 0
-10 -4 -10 -9z"/>
<path d="M2603 2969 l-33 -10 0 -77 c0 -42 -7 -120 -15 -172 -8 -52 -18 -125
-22 -162 -7 -76 -1 -80 64 -57 28 9 32 16 38 64 6 54 7 55 48 65 23 6 60 17
82 26 38 14 41 14 58 -8 48 -59 59 -69 73 -64 9 3 23 6 32 6 9 0 23 4 30 9 18
11 -8 53 -128 202 -51 63 -102 131 -114 151 -23 41 -46 46 -113 27z m147 -226
c0 -11 -58 -33 -87 -33 -16 0 -17 42 -2 93 l10 38 39 -43 c22 -24 39 -48 40
-55z"/>
<path d="M526 2643 c18 -110 37 -190 50 -214 7 -15 27 -76 43 -136 17 -59 46
-164 65 -233 20 -69 48 -174 63 -233 l28 -108 35 6 c64 11 70 15 60 33 -5 9
-26 73 -46 142 -21 69 -48 145 -60 170 -12 25 -38 88 -57 140 -47 128 -76 193
-90 202 -9 6 -8 11 3 18 13 8 10 20 -22 82 -20 40 -44 94 -53 121 -21 57 -28
60 -19 10z"/>
<path d="M4257 2600 c3 -11 12 -20 20 -20 11 0 11 4 3 20 -6 11 -15 20 -19 20
-5 0 -7 -9 -4 -20z"/>
<path d="M4020 2543 c-1 -10 -9 -36 -19 -57 -11 -22 -16 -46 -13 -55 4 -10 1
-12 -8 -6 -9 6 -11 4 -4 -6 4 -8 7 -27 6 -44 -1 -24 0 -26 6 -11 8 19 9 18 15
-5 4 -13 2 -25 -3 -27 -20 -7 -9 -19 13 -15 22 4 23 7 14 42 -8 30 -6 51 11
108 12 39 22 76 22 82 0 19 -40 13 -40 -6z"/>
<path d="M3860 2510 c0 -5 7 -7 15 -4 8 4 22 1 30 -6 12 -10 15 -9 15 4 0 11
-9 16 -30 16 -16 0 -30 -4 -30 -10z"/>
<path d="M4192 2443 c-6 -32 -7 -62 -2 -66 4 -5 11 9 15 32 4 22 11 43 16 47
14 8 10 44 -5 44 -9 0 -17 -20 -24 -57z"/>
<path d="M4363 2457 c4 -10 7 -23 7 -28 0 -5 5 -9 10 -9 16 0 12 26 -7 41 -15
12 -16 12 -10 -4z"/>
<path d="M3705 2445 c-22 -7 -32 -13 -22 -14 17 -1 17 -2 0 -31 -10 -17 -23
-28 -30 -26 -13 5 -10 -23 11 -99 9 -30 18 -41 35 -43 22 -4 22 -2 16 52 l-7
55 36 6 c56 11 56 27 0 23 -43 -3 -49 -1 -49 17 0 15 12 24 43 35 23 8 42 20
42 27 0 16 -23 15 -75 -2z"/>
<path d="M3440 2359 c0 -6 9 -24 21 -40 11 -16 17 -33 14 -39 -3 -5 -1 -10 4
-10 17 0 13 30 -10 66 -22 36 -29 41 -29 23z"/>
<path d="M707 2323 c8 -21 23 -56 33 -78 10 -22 32 -76 50 -120 17 -44 35 -87
41 -95 20 -34 39 -85 35 -95 -2 -7 13 -48 34 -91 21 -43 36 -83 33 -88 -3 -4
4 -5 15 -2 11 4 23 3 26 -2 2 -4 -20 -17 -50 -27 -66 -22 -67 -35 -18 -194 27
-86 22 -94 -85 -121 -56 -15 -47 -24 10 -11 81 19 122 14 153 -18 l28 -29 -54
-16 c-29 -8 -82 -23 -118 -32 -65 -16 -122 -41 -70 -30 94 19 221 39 224 35 3
-2 7 -16 11 -30 6 -23 1 -29 -32 -49 -21 -12 -83 -36 -138 -52 -55 -16 -104
-34 -110 -40 -7 -8 -4 -9 10 -3 11 4 71 20 134 36 114 29 191 38 161 19 -11
-7 -6 -10 21 -10 38 0 69 -24 53 -40 -5 -4 -74 -26 -154 -48 -163 -45 -195
-56 -205 -71 -8 -14 -4 -14 36 3 19 8 94 26 168 41 74 15 140 29 148 32 13 5
19 -23 6 -29 -5 -1 -15 -16 -23 -33 -21 -40 -73 -68 -189 -100 -53 -15 -103
-34 -111 -42 -13 -14 -13 -15 5 -8 43 17 255 73 282 75 45 3 52 1 51 -18 0 -9
2 -24 6 -32 10 -26 -6 -36 -121 -73 -141 -46 -183 -63 -183 -77 0 -6 10 -4 24
5 24 16 243 75 278 75 15 0 18 -4 12 -17 -4 -10 -8 -31 -9 -47 -2 -36 -11 -40
-152 -80 -64 -18 -118 -37 -120 -43 -2 -5 58 7 134 28 183 50 195 51 207 16
13 -35 -4 -53 -81 -84 -32 -13 -45 -21 -29 -18 15 3 41 9 57 12 24 4 29 2 32
-18 3 -13 15 -64 27 -114 12 -49 28 -115 35 -146 7 -31 22 -83 33 -115 11 -33
30 -94 42 -136 l23 -78 297 0 298 0 11 30 c7 23 7 30 -2 30 -7 0 -21 16 -31
35 -11 19 -25 35 -33 35 -14 0 -17 12 -6 24 4 4 8 15 8 24 0 9 6 16 14 14 12
-3 12 0 1 12 -7 9 -21 16 -31 16 -23 0 -23 8 -4 34 8 11 15 25 15 30 0 7 -3 6
-8 -1 -10 -16 -27 -4 -36 24 -6 18 -4 22 8 17 9 -3 16 -1 16 5 0 6 -4 11 -9
11 -5 0 -9 15 -8 32 2 27 -2 33 -18 33 -11 0 -19 3 -17 8 1 4 2 12 2 18 0 5 4
7 10 4 6 -4 7 1 3 11 -5 13 -3 15 8 9 12 -8 12 -6 0 8 -7 9 -11 23 -8 31 4 10
1 13 -9 9 -17 -6 -48 58 -32 68 11 7 -25 49 -42 49 -5 0 -8 13 -6 29 2 19 -3
34 -16 46 -14 11 -18 24 -14 39 4 16 -1 33 -15 50 -15 19 -20 37 -17 61 2 20
0 31 -6 28 -5 -4 -7 1 -3 10 3 9 -1 33 -9 54 -12 27 -13 38 -4 41 7 3 4 10 -9
18 -13 9 -18 21 -14 31 4 11 3 14 -5 9 -9 -5 -12 8 -12 44 0 43 -3 51 -16 46
-13 -5 -14 -1 -9 23 3 17 2 32 -4 36 -6 3 -11 23 -12 43 0 30 -2 33 -9 17 l-9
-20 -1 20 c0 11 -7 29 -15 39 -15 20 -11 41 6 31 5 -4 9 -4 9 0 0 3 -12 10
-26 15 -21 9 -25 15 -20 35 5 18 2 25 -9 25 -17 0 -21 25 -5 35 6 4 8 11 4 16
-3 5 -10 7 -15 4 -5 -4 -9 -1 -9 5 0 7 -9 23 -20 37 -11 14 -20 32 -20 39 0
14 -38 73 -64 99 -9 9 -16 23 -16 30 0 8 -11 22 -24 30 -13 9 -26 25 -29 35
-3 11 -12 20 -21 20 -13 0 -23 30 -13 44 1 2 -6 13 -16 23 -9 11 -14 23 -10
26 3 4 1 7 -6 7 -7 0 -9 4 -6 10 4 6 -1 7 -11 3 -11 -4 -15 -3 -11 4 4 6 0 19
-9 27 -10 10 -11 16 -3 16 9 0 9 3 -1 15 -6 8 -9 19 -5 24 3 6 0 8 -8 5 -8 -3
-18 6 -25 21 -7 14 -16 24 -21 21 -5 -4 -7 3 -4 15 4 12 0 25 -8 30 -12 8 -12
11 1 19 13 8 13 10 1 10 -17 0 -71 49 -71 64 0 6 -16 24 -35 39 -19 15 -35 33
-35 40 0 7 -13 21 -29 31 -15 11 -28 26 -27 35 2 26 -58 47 -125 44 -55 -2
-61 0 -71 22 -18 40 -28 29 -11 -12z"/>
<path d="M3387 2323 c-2 -4 -8 -30 -11 -58 -4 -27 -10 -61 -13 -74 -4 -17 -2
-22 6 -17 6 4 11 15 11 24 0 9 11 25 25 37 l26 20 -20 38 c-11 21 -21 34 -24
30z"/>
<path d="M3500 2257 c0 -12 -8 -17 -29 -17 -16 0 -34 -6 -40 -14 -9 -11 -5
-12 29 -2 43 11 69 3 78 -24 3 -9 -1 -11 -12 -7 -10 4 -15 3 -11 -3 9 -14 45
-12 45 3 -1 6 -14 28 -30 47 -22 24 -30 29 -30 17z"/>
<path d="M3158 2253 c7 -3 16 -2 19 1 4 3 -2 6 -13 5 -11 0 -14 -3 -6 -6z"/>
<path d="M3415 2189 c-4 -6 -5 -12 -2 -15 2 -3 7 2 10 11 7 17 1 20 -8 4z"/>
<path d="M2811 2151 c-22 -14 -3 -31 35 -31 36 0 46 14 17 24 -10 3 -22 8 -28
11 -5 3 -16 1 -24 -4z"/>
<path d="M1450 1501 c0 -6 4 -13 10 -16 6 -3 7 1 4 9 -7 18 -14 21 -14 7z"/>
<path d="M1700 720 c0 -5 5 -10 11 -10 5 0 7 5 4 10 -3 6 -8 10 -11 10 -2 0
-4 -4 -4 -10z"/>
<path d="M10124 629 c-3 -6 -1 -16 5 -22 8 -8 11 -5 11 11 0 24 -5 28 -16 11z"/>
<path d="M10155 630 c3 -5 8 -10 11 -10 2 0 4 5 4 10 0 6 -5 10 -11 10 -5 0
-7 -4 -4 -10z"/>
<path d="M10020 565 c0 -8 4 -15 10 -15 5 0 7 7 4 15 -4 8 -8 15 -10 15 -2 0
-4 -7 -4 -15z"/>
<path d="M10150 560 c0 -5 5 -10 10 -10 6 0 10 5 10 10 0 6 -4 10 -10 10 -5 0
-10 -4 -10 -10z"/>
<path d="M10130 460 c8 -5 20 -10 25 -10 6 0 3 5 -5 10 -8 5 -19 10 -25 10 -5
0 -3 -5 5 -10z"/>
<path d="M9557 401 c19 -10 28 -11 31 -2 6 19 20 12 26 -15 4 -15 9 -24 12
-22 2 3 0 17 -5 30 -8 22 -16 25 -50 24 l-41 -1 27 -14z"/>
<path d="M9635 390 c3 -5 8 -10 11 -10 2 0 4 5 4 10 0 6 -5 10 -11 10 -5 0 -7
-4 -4 -10z"/>
<path d="M9447 363 c-2 -4 5 -17 16 -28 l20 -20 -13 25 c-16 32 -17 33 -23 23z"/>
<path d="M9298 338 c5 -5 16 -8 23 -6 8 3 3 7 -10 11 -17 4 -21 3 -13 -5z"/>
<path d="M9490 340 c0 -5 5 -10 10 -10 6 0 10 5 10 10 0 6 -4 10 -10 10 -5 0
-10 -4 -10 -10z"/>
<path d="M9184 317 c-16 -14 -24 -29 -20 -35 10 -17 26 -15 26 4 0 12 6 15 28
10 l27 -6 -24 13 c-17 10 -20 16 -11 22 7 4 16 2 21 -6 4 -7 11 -10 16 -6 7 8
-14 27 -29 27 -4 0 -19 -11 -34 -23z"/>
<path d="M9537 275 c-4 -8 -3 -16 1 -19 4 -3 9 4 9 15 2 23 -3 25 -10 4z"/>
<path d="M9170 250 c0 -5 5 -10 10 -10 6 0 10 5 10 10 0 6 -4 10 -10 10 -5 0
-10 -4 -10 -10z"/>
<path d="M8870 221 c0 -16 -3 -38 -6 -48 -3 -10 2 -7 10 7 18 29 20 56 6 65
-6 4 -10 -6 -10 -24z"/>
<path d="M9245 224 c-16 -12 -16 -14 -3 -14 9 0 19 6 21 13 4 10 6 10 6 0 1
-15 21 -18 21 -4 0 16 -26 19 -45 5z"/>
<path d="M9216 191 c-4 -7 -5 -15 -2 -18 9 -9 19 4 14 18 -4 11 -6 11 -12 0z"/>
<path d="M1895 159 c-4 -6 -5 -12 -2 -15 2 -3 7 2 10 11 7 17 1 20 -8 4z"/>
<path d="M8805 150 c4 -11 2 -20 -4 -20 -6 0 -11 5 -11 11 0 5 -4 8 -9 4 -5
-3 -7 -21 -4 -39 4 -28 2 -35 -15 -40 -13 -5 -19 -13 -15 -22 8 -20 20 -17 26
7 3 12 10 18 16 14 6 -3 11 2 11 13 0 10 11 31 25 46 17 18 20 26 10 26 -8 0
-15 5 -15 10 0 6 -5 10 -11 10 -6 0 -8 -9 -4 -20z"/>
<path d="M8901 148 c-14 -23 -14 -23 8 -4 22 20 25 26 13 26 -4 0 -13 -10 -21
-22z"/>
<path d="M8730 100 c-11 -21 -5 -44 9 -35 13 7 20 44 11 50 -5 3 -14 -4 -20
-15z"/>
<path d="M1932 90 c0 -14 2 -19 5 -12 2 6 2 18 0 25 -3 6 -5 1 -5 -13z"/>
<path d="M8470 49 c0 -5 5 -7 10 -4 6 3 10 8 10 11 0 2 -4 4 -10 4 -5 0 -10
-5 -10 -11z"/>
<path d="M8510 39 c0 -11 5 -17 10 -14 6 3 10 13 10 21 0 8 -4 14 -10 14 -5 0
-10 -9 -10 -21z"/>
<path d="M8585 51 c-3 -6 -12 -8 -20 -4 -8 3 -15 1 -15 -5 0 -5 7 -13 16 -16
17 -7 50 19 35 29 -5 3 -12 1 -16 -4z"/>
<path d="M8617 47 c-4 -11 -1 -24 7 -33 18 -17 32 -19 18 -1 -5 6 -12 21 -14
32 -3 19 -4 19 -11 2z"/>
<path d="M8710 51 c0 -6 4 -11 9 -11 5 0 12 -10 14 -22 4 -16 5 -14 4 6 -2 27
-27 52 -27 27z"/>
</g>
</svg>
