<svg width="400" height="400" xmlns="http://www.w3.org/2000/svg" viewBox="0 0 400 400">
      <defs>
            <radialGradient id="grad1" cx="50%" cy="50%" r="50%" fx="50%" fy="50%">
                  <stop offset="30%" style="stop-color:green;stop-opacity:1" />
                  <stop offset="100%" style="stop-color:yellow;stop-opacity:1" />
            </radialGradient>
      </defs>
      <circle cx="200" cy="200" r="180" fill="url(#grad1)" stroke="green" stroke-width="10" />
      <circle cx="200" cy="200" r="140" fill="none" stroke="yellow" stroke-width="10" />
      <g transform="translate(150, 150)">
            <rect x="45" y="20" width="20" height="80" fill="white" />
            <rect x="20" y="45" width="80" height="20" fill="white" />
      </g>
      <path d="M200,100 C220,130 240,140 200,170 C160,140 180,130 200,100 Z" fill="green" />
      <path d="M200,100 C180,130 160,140 200,170 C240,140 220,130 200,100 Z" fill="green" />
      <path d="M200,240 C220,210 240,200 200,170 C160,200 180,210 200,240 Z" fill="green" />
      <path d="M200,240 C180,210 160,200 200,170 C240,200 220,210 200,240 Z" fill="green" />
      <text x="50" y="350" font-family="Verdana" font-size="40" fill="green" font-weight="bold">AroeCare</text>
</svg>